<?xml version="1.0" encoding="UTF-8"?>
<svg xmlns="http://www.w3.org/2000/svg" version="1.1" xmlns:xlink="http://www.w3.org/1999/xlink" viewBox="0 0 193.9 171.1">
  <defs>
    <style>
      .cls-1 {
        fill: #fff;
      }

      .cls-2 {
        fill: url(#linear-gradient);
        fill-rule: evenodd;
      }
    </style>
    <linearGradient id="linear-gradient" x1="0" y1="85.6" x2="193.9" y2="85.6" gradientUnits="userSpaceOnUse">
      <stop offset="0" stop-color="#ff5b00"/>
      <stop offset="1" stop-color="#c0f"/>
    </linearGradient>
  </defs>
  <!-- Generator: Adobe Illustrator 28.6.0, SVG Export Plug-In . SVG Version: 1.2.0 Build 709)  -->
  <g>
    <g id="Layer_1">
      <path class="cls-2" d="M171.1,58.5v-31.5c0-1.8-.7-3.6-2-4.8l-20.2-20.2c-1.3-1.3-3-2-4.8-2H27c-1.8,0-3.6.7-4.8,2L2,22.2c-1.3,1.3-2,3-2,4.8v117.1c0,1.8.7,3.6,2,4.8l20.2,20.2c1.3,1.3,3,2,4.8,2h117.1c1.8,0,3.6-.7,4.8-2l20.2-20.2c1.3-1.3,2-3,2-4.8v-31.5c0-1.8.7-3.6,2-4.8l19.8-19.8c1.3-1.3,1.3-3.5,0-4.9l-19.8-19.8c-1.3-1.3-2-3-2-4.8"/>
      <path class="cls-1" d="M131.1,73.4L46.3,38c-2.5-1-5,1.3-4.2,3.9l28.3,87.4c.7,2.2,3.4,2.9,5.1,1.3l13.9-12.9c1.3-1.2,3.3-1.1,4.4.2l17,18.5c1.2,1.3,3.2,1.4,4.4.2l19.4-17.8c1.3-1.2,1.4-3.2.2-4.4l-17-18.5c-1.2-1.3-1.1-3.3.2-4.4l13.9-12.9c1.7-1.5,1.2-4.3-.9-5.2Z"/>
    </g>
  </g>
</svg>