<?xml version="1.0" encoding="UTF-8"?>
<svg xmlns="http://www.w3.org/2000/svg" version="1.1" xmlns:xlink="http://www.w3.org/1999/xlink" viewBox="0 0 606.9 187.6">
  <defs>
    <style>
      .cls-1 {
        fill: #262626;
      }

      .cls-2 {
        fill: url(#linear-gradient);
      }
    </style>
    <linearGradient id="linear-gradient" x1="139.3" y1="105.9" x2="303.1" y2="105.9" gradientTransform="translate(-139.2 19.7) rotate(-8)" gradientUnits="userSpaceOnUse">
      <stop offset="0" stop-color="#ff5b00"/>
      <stop offset="1" stop-color="#c0f"/>
    </linearGradient>
  </defs>
  <!-- Generator: Adobe Illustrator 28.6.0, SVG Export Plug-In . SVG Version: 1.2.0 Build 709)  -->
  <g>
    <g id="Layer_1">
      <g>
        <g>
          <path class="cls-1" d="M224.3,14.2h31c8.8,0,15.7,2.3,20.5,6.8,4.8,4.6,7.1,10.3,7.1,16.9s-2.3,12.7-7.1,17.2c-4.8,4.5-11.5,6.9-20.5,6.9h-13v22.6h-18V14.2ZM254.3,47.4c6.9,0,10.4-3.2,10.4-9.6s-.8-4.9-2.5-6.7c-1.7-1.8-4.3-2.6-7.8-2.6h-12v18.8h12Z"/>
          <path class="cls-1" d="M299.3,75.1c-7.4-7.1-11.1-15.8-11.1-25.8s3.7-18.7,11.1-25.8c7.3-7.1,16.1-10.7,26.2-10.7s19.1,3.6,26.4,10.7,10.9,15.8,10.9,25.8-3.6,18.7-10.9,25.8c-7.3,7.1-16.1,10.7-26.4,10.7s-18.9-3.6-26.2-10.7ZM339.2,62.9c3.7-3.7,5.5-8.2,5.5-13.5s-1.8-9.9-5.5-13.6c-3.7-3.7-8.2-5.5-13.6-5.5s-9.8,1.9-13.5,5.6c-3.7,3.7-5.6,8.2-5.6,13.5s1.9,9.8,5.6,13.5c3.7,3.7,8.2,5.6,13.5,5.6s9.9-1.9,13.6-5.6Z"/>
          <path class="cls-1" d="M362.6,14.2h19.2l11.4,41.9,13.2-41.9h16.1l13.2,41.8,11.4-41.8h19.3l-19.7,70.3h-18.7l-13.4-40.9-13.3,40.9h-18.7l-19.7-70.3Z"/>
          <path class="cls-1" d="M473.5,14.2h54v17.5h-36v10.1h25.3v16.3h-25.3v9h36v17.4h-54V14.2Z"/>
          <path class="cls-1" d="M534.7,14.2h31c8.8,0,15.7,2.3,20.5,6.8,4.8,4.6,7.1,10.3,7.1,16.9s-2.3,12.7-7.1,17.2c-1.5,1.4-3.2,2.6-5.1,3.6l14.1,25.9h-17l-12.4-22.6h-13v22.6h-18V14.2ZM564.7,47.4c6.9,0,10.4-3.2,10.4-9.6s-.8-4.9-2.5-6.7c-1.7-1.8-4.3-2.6-7.8-2.6h-12v18.8h12Z"/>
          <path class="cls-1" d="M224.3,106.3h32.6c7.1,0,13.2,1.6,18.3,4.9,5.1,3.2,8.9,7.5,11.4,12.7s3.6,11.1,3.6,17.6-1.2,12.4-3.6,17.7c-2.4,5.2-6.2,9.5-11.4,12.6-5.1,3.2-11.2,4.9-18.3,4.9h-32.6v-70.3ZM255.6,159.2c5.2,0,9.3-1.6,12.2-4.9,2.8-3.2,4.2-7.5,4.2-12.9s-1.4-9.7-4.2-12.9c-2.9-3.2-6.9-4.8-12.2-4.8h-13.3v35.4h13.3Z"/>
          <path class="cls-1" d="M297.4,106.3h54v17.5h-36v10.1h25.3v16.3h-25.3v9h36v17.4h-54v-70.3Z"/>
          <path class="cls-1" d="M358.6,106.3h19.7l17.7,47.3,17.8-47.3h19.7l-28.5,70.3h-17.9l-28.4-70.3Z"/>
        </g>
        <path class="cls-2" d="M177.3,93.9l-3.2-23c-.3-2-2.2-3.4-4.2-3.1l-17.9,2.5c-1.6.2-3.1-.6-3.8-2.1-1.5-3.1-3.2-6.1-5.2-8.9s-.9-3.1,0-4.4l10.9-14.4c1.2-1.6.9-4-.7-5.2l-18.6-14c-1.6-1.2-4-.9-5.2.7l-10.9,14.4c-1,1.3-2.7,1.8-4.2,1.3-3.2-1.1-6.5-2-10-2.6-1.6-.3-2.8-1.5-3-3.1l-2.5-17.9c-.3-2-2.2-3.4-4.2-3.1l-23,3.2c-2,.3-3.4,2.2-3.1,4.2l2.5,17.9c.2,1.6-.6,3.1-2.1,3.8-3.1,1.5-6.1,3.2-8.9,5.2-1.3.9-3.1.9-4.4,0l-14.4-10.9c-1.6-1.2-4-.9-5.2.7l-14,18.6c-1.2,1.6-.9,4,.7,5.2l14.4,10.9c1.3,1,1.8,2.7,1.3,4.2-1.1,3.2-2,6.5-2.6,10s-1.5,2.8-3.1,3l-17.9,2.5c-2,.3-3.4,2.2-3.1,4.2l3.2,23c.3,2,2.2,3.4,4.2,3.1l17.9-2.5c1.6-.2,3.1.6,3.8,2.1,1.5,3.1,3.2,6.1,5.2,8.9s.9,3.1,0,4.4l-10.9,14.4c-1.2,1.6-.9,4,.7,5.2l18.6,14c1.6,1.2,4,.9,5.2-.7l10.9-14.4c1-1.3,2.7-1.8,4.2-1.3,3.2,1.1,6.5,2,10,2.6,1.6.3,2.8,1.5,3,3.1l2.5,17.9c.3,2,2.2,3.4,4.2,3.1l23-3.2c2-.3,3.4-2.2,3.1-4.2l-2.5-17.9c-.2-1.6.6-3.1,2.1-3.8,3.1-1.5,6.1-3.2,8.9-5.2,1.3-.9,3.1-.9,4.4,0l14.4,10.9c1.6,1.2,4,.9,5.2-.7l14-18.6c1.2-1.6.9-4-.7-5.2l-14.4-10.9c-1.3-1-1.8-2.7-1.3-4.2,1.1-3.2,2-6.5,2.6-10s1.5-2.8,3.1-3l17.9-2.5c2-.3,3.4-2.2,3.1-4.2ZM120.1,90.2c2,14.1-7.8,27.1-21.9,29.1-14.1,2-27.1-7.8-29.1-21.9s7.8-27.1,21.9-29.1c14.1-2,27.1,7.8,29.1,21.9Z"/>
        <path class="cls-1" d="M181.2,120.7l-72.7-30.3c-2.1-.9-4.3,1.1-3.6,3.3l24.3,74.9c.6,1.9,2.9,2.5,4.4,1.1l12-11c1.1-1,2.8-.9,3.8.2l14.6,15.8c1,1.1,2.7,1.2,3.8.2l16.6-15.3c1.1-1,1.2-2.7.2-3.8l-14.6-15.8c-1-1.1-.9-2.8.2-3.8l12-11c1.4-1.3,1-3.7-.8-4.5Z"/>
      </g>
    </g>
  </g>
</svg>