<?xml version="1.0" encoding="UTF-8"?>
<svg xmlns="http://www.w3.org/2000/svg" version="1.1" viewBox="0 0 90.6 108">
  <defs>
    <style>
      .cls-1 {
        fill: #a3a3a3;
      }
    </style>
  </defs>
  <!-- Generator: Adobe Illustrator 28.7.1, SVG Export Plug-In . SVG Version: 1.2.0 Build 142)  -->
  <g>
    <g id="Layer_1">
      <path class="cls-1" d="M35.9,57.6c.7-2.7,1.8-4.9,3.2-6.5,1.4-1.6,3.3-3.2,5.6-4.7,2.9-1.9,5-3.7,6.5-5.3,1.5-1.7,2.2-3.7,2.3-5.9,0-2.4-.9-4.4-2.5-5.9-1.7-1.5-3.7-2.3-6.1-2.3s-3.2.4-4.6,1.1c-1.4.7-2.5,1.8-3.4,3.1-.9,1.4-1.3,3-1.4,4.8h-17.9c0-5.3,1.3-9.7,3.7-13.3,2.4-3.6,5.7-6.3,9.7-8,4.1-1.7,8.7-2.6,13.8-2.6s10.3.9,14.6,2.6c4.2,1.7,7.6,4.3,10,7.6,2.4,3.3,3.6,7.3,3.6,12,0,4.5-1.1,8.3-3.3,11.4-2.2,3.1-5.3,5.9-9.3,8.4-3.2,1.8-5.5,3.8-6.9,5.9-1.4,2.1-2.1,4.8-2.1,8.3v1.6h-16.5v-1.6c0-4.4.4-7.9,1.1-10.6ZM34.6,80.6c.9-1.5,2.2-2.8,3.7-3.7,1.6-.9,3.3-1.4,5.1-1.4s3.4.5,5,1.4,2.8,2.1,3.8,3.7c1,1.5,1.4,3.2,1.4,5s-.5,3.5-1.4,5.1c-1,1.6-2.2,2.8-3.8,3.7-1.6.9-3.2,1.4-5,1.4s-3.5-.5-5.1-1.4c-1.6-.9-2.8-2.2-3.7-3.7-.9-1.6-1.4-3.3-1.3-5.1,0-1.8.4-3.5,1.3-5Z"/>
    </g>
  </g>
</svg>